# xmcd CD database file
#
# Track frame offsets:
#	150
#	30975
#	45300
#	59400
#	79050
#	111975
#	128100
#	143850
#	162150
#	198675
#	215100
#	224400
#	240300
#	286650
#	311850
#
# Disc length: 4655 seconds
#
# Revision: 0
# Processed by: cddbd v1.5.1PL2 Copyright (c) Steve Scherf et al.
# Submitted via: CDex 1.51
#
DISCID=dc122d0f
DTITLE=Berin Philharmonic Wind Quintet - Danzi Wind Quintets
DYEAR=1991
DGENRE=Wind
TTITLE0=Wind Quintet in G Op.67 No.1 -I- Allegretto
TTITLE1=Wind Quintet in G Op.67 No.1 -II- Andante con moto
TTITLE2=Wind Quintet in G Op.67 No.1 -III- Minuetto. Allegretto
TTITLE3=Wind Quintet in G Op.67 No.1 -IV- Allegretto moderato
TTITLE4=Wind Quintet in E minor Op.67 No.2 -I- Allegro vivo
TTITLE5=Wind Quintet in E minor Op.67 No.2 -II- Larghetto
TTITLE6=Wind Quintet in E minor Op.67 No.2 -III- Minuetto. Allegretto
TTITLE7=Wind Quintet in E minor Op.67 No.2 -IV- Allegretto
TTITLE8=Wind Quartet in Eb Op.67 No.3 -I- Larghetto - Allegro moderato
TTITLE9=Wind Quartet in Eb Op.67 No.3 -II- Andante moderato
TTITLE10=Wind Quartet in Eb Op.67 No.3 -III- Minuetto. Allegro
TTITLE11=Wind Quartet in Eb Op.67 No.3 -IV- Allegretto
TTITLE12=Quintet in F Op.53 -I- Allegro
TTITLE13=Quintet in F Op.53 -II- Andante
TTITLE14=Quintet in F Op.53 -III- Polacca
EXTD=YEAR: 1991
EXTT0=
EXTT1=
EXTT2=
EXTT3=
EXTT4=
EXTT5=
EXTT6=
EXTT7=
EXTT8=
EXTT9=
EXTT10=
EXTT11=
EXTT12=
EXTT13=
EXTT14=
PLAYORDER=
